<svg xmlns="http://www.w3.org/2000/svg" viewBox="-10 -10 129.11 129.11"><path d="m12.125 95.225h43.371c-0.66 1.761-1.43 3.548-2.283 5.391-1.403 2.971-0.138 6.52 2.833 7.921 0.825 0.385 1.679 0.577 2.559 0.577 2.228 0 4.373-1.265 5.391-3.41 1.705-3.603 3.08-7.096 4.125-10.479h28.877c3.301 0 5.941-2.667 5.941-5.94 0-3.271-2.668-5.939-5.941-5.939h-26.568c0.522-7.397-0.853-14.081-4.208-19.994-2.503-4.429-5.886-7.948-9.599-10.753l43.838-42.465c2.311-2.337 2.282-6.105-0.056-8.416-2.337-2.312-6.105-2.283-8.415 0.055l-46.04 44.691c-9.048-3.878-17.271-4.73-17.876-4.786-3.273-0.302-6.161 2.063-6.491 5.335-0.33 3.273 2.063 6.188 5.335 6.518 0.083 0 4.456 0.496 9.874 2.23l-28.904 29.343c-1.678 1.705-2.173 4.263-1.265 6.49 0.937 2.2 3.108 3.631 5.502 3.631zm36.083-34.076c3.025 2.091 5.776 4.758 7.673 8.113 2.256 3.987 3.107 8.69 2.586 14.054h-32.125l21.866-22.167z"/></svg>
